<?xml version="1.0" encoding="UTF-8"?>
<svg version="1.1" xmlns="http://www.w3.org/2000/svg" width="32" height="32">
<path d="M0 0 C2.31 0 4.62 0 7 0 C7.33 0.99 7.66 1.98 8 3 C11.3 3 14.6 3 18 3 C18 2.01 18 1.02 18 0 C22.62 0 27.24 0 32 0 C32 10.23 32 20.46 32 31 C21.44 31 10.88 31 0 31 C0 20.77 0 10.54 0 0 Z M22 3 C22 6.3 22 9.6 22 13 C22.33 13 22.66 13 23 13 C23 9.7 23 6.4 23 3 C22.67 3 22.34 3 22 3 Z M10 6 C10 8.97 10 11.94 10 15 C9.01 15 8.02 15 7 15 C7 13.02 7 11.04 7 9 C6.01 9 5.02 9 4 9 C4 10.98 4 12.96 4 15 C3.01 15.33 2.02 15.66 1 16 C5.29 16 9.58 16 14 16 C13.34 15.34 12.68 14.68 12 14 C11.43479997 11.34462628 11.26211802 8.70855287 11 6 C10.67 6 10.34 6 10 6 Z M19 15 C19 15.33 19 15.66 19 16 C20.65 16 22.3 16 24 16 C24 15.67 24 15.34 24 15 C22.35 15 20.7 15 19 15 Z M26 15 C26 15.33 26 15.66 26 16 C27.65 16 29.3 16 31 16 C31 15.67 31 15.34 31 15 C29.35 15 27.7 15 26 15 Z M2 24 C2.99 24.495 2.99 24.495 4 25 C4.33 25.99 4.66 26.98 5 28 C5.33 26.68 5.66 25.36 6 24 C4.68 24 3.36 24 2 24 Z M8 24 C9.485 24.99 9.485 24.99 11 26 C11 25.34 11 24.68 11 24 C10.01 24 9.02 24 8 24 Z M13 24 C13 24.33 13 24.66 13 25 C15.97 25 18.94 25 22 25 C22 24.67 22 24.34 22 24 C19.03 24 16.06 24 13 24 Z " fill="#427CBC" transform="translate(0,1)"/>
<path d="M0 0 C2.31 0 4.62 0 7 0 C7.33 0.99 7.66 1.98 8 3 C11.3 3 14.6 3 18 3 C18 2.01 18 1.02 18 0 C22.62 0 27.24 0 32 0 C32.09765625 10.83984375 32.09765625 10.83984375 32 14 C29.88577677 16.11422323 25.54667911 15.50847554 22.625 15.6875 C21.84382813 15.74744141 21.06265625 15.80738281 20.2578125 15.86914062 C14.35691964 16.23794643 14.35691964 16.23794643 11 14 C8.84725052 14.30840599 8.84725052 14.30840599 7 15 C7 13.02 7 11.04 7 9 C6.01 9 5.02 9 4 9 C4 10.98 4 12.96 4 15 C2.68 15.33 1.36 15.66 0 16 C0 10.72 0 5.44 0 0 Z M22 3 C22 6.3 22 9.6 22 13 C22.33 13 22.66 13 23 13 C23 9.7 23 6.4 23 3 C22.67 3 22.34 3 22 3 Z " fill="#437CBC" transform="translate(0,1)"/>
<path d="M0 0 C4.62 0 9.24 0 14 0 C14.09765625 10.83984375 14.09765625 10.83984375 14 14 C13 15 13 15 10.05859375 15.09765625 C6.70572917 15.06510417 3.35286458 15.03255208 0 15 C0 10.05 0 5.1 0 0 Z M4 3 C4 6.3 4 9.6 4 13 C4.33 13 4.66 13 5 13 C5 9.7 5 6.4 5 3 C4.67 3 4.34 3 4 3 Z " fill="#65B650" transform="translate(18,1)"/>
</svg>
